<?xml version="1.0" encoding="UTF-8"?>
<svg width="200" height="200" viewBox="0 0 200 200" xmlns="http://www.w3.org/2000/svg">
  <defs>
    <linearGradient id="bg" x1="0%" y1="0%" x2="100%" y2="100%">
      <stop offset="0%" stop-color="#9b59b6"/>
      <stop offset="100%" stop-color="#8e44ad"/>
    </linearGradient>
  </defs>
  <circle cx="100" cy="100" r="95" fill="url(#bg)" stroke="#fff" stroke-width="2"/>
  <g>
    <!-- Headphones -->
    <path d="M60,110 L60,90 C60,65 75,50 100,50 C125,50 140,65 140,90 L140,110" fill="none" stroke="#fff" stroke-width="6"/>
    <path d="M60,90 L60,120 C60,130 50,130 50,130 L40,130 C30,130 30,120 30,120 L30,90 C30,90 30,80 40,80 L50,80 C60,80 60,90 60,90 Z" fill="#f5f5f5"/>
    <path d="M140,90 L140,120 C140,130 150,130 150,130 L160,130 C170,130 170,120 170,120 L170,90 C170,90 170,80 160,80 L150,80 C140,80 140,90 140,90 Z" fill="#f5f5f5"/>
    <!-- Sound waves -->
    <path d="M100,80 L100,130" stroke="#fff" stroke-width="4" stroke-linecap="round"/>
    <path d="M115,85 C125,90 125,120 115,125" fill="none" stroke="#fff" stroke-width="3" stroke-linecap="round"/>
    <path d="M125,75 C140,85 140,125 125,135" fill="none" stroke="#fff" stroke-width="3" stroke-linecap="round"/>
    <path d="M85,85 C75,90 75,120 85,125" fill="none" stroke="#fff" stroke-width="3" stroke-linecap="round"/>
    <path d="M75,75 C60,85 60,125 75,135" fill="none" stroke="#fff" stroke-width="3" stroke-linecap="round"/>
  </g>
  <text x="100" y="170" font-family="Arial, sans-serif" font-size="16" font-weight="bold" text-anchor="middle" fill="#fff">LISTENING</text>
</svg>