<?xml version="1.0" encoding="UTF-8"?>
<svg width="200" height="200" viewBox="0 0 200 200" xmlns="http://www.w3.org/2000/svg">
  <defs>
    <linearGradient id="bg" x1="0%" y1="0%" x2="100%" y2="100%">
      <stop offset="0%" stop-color="#4a6fa5"/>
      <stop offset="100%" stop-color="#2c3e50"/>
    </linearGradient>
  </defs>
  <circle cx="100" cy="100" r="95" fill="url(#bg)" stroke="#fff" stroke-width="2"/>
  <g fill="#fff">
    <!-- Book -->
    <path d="M50,60 L150,60 L150,140 L50,140 C45,140 40,135 40,130 L40,70 C40,65 45,60 50,60 Z" fill="#f5f5f5"/>
    <path d="M50,60 L50,140 C55,140 60,135 60,130 L60,70 C60,65 55,60 50,60 Z" fill="#e0e0e0"/>
    <!-- Pages -->
    <path d="M60,65 L145,65 L145,135 L60,135 Z" fill="#fff"/>
    <!-- Text lines -->
    <rect x="70" y="80" width="65" height="4" rx="2" fill="#3498db"/>
    <rect x="70" y="90" width="55" height="4" rx="2" fill="#3498db"/>
    <rect x="70" y="100" width="60" height="4" rx="2" fill="#3498db"/>
    <rect x="70" y="110" width="50" height="4" rx="2" fill="#3498db"/>
    <rect x="70" y="120" width="65" height="4" rx="2" fill="#3498db"/>
  </g>
  <text x="100" y="170" font-family="Arial, sans-serif" font-size="16" font-weight="bold" text-anchor="middle" fill="#fff">READING</text>
</svg>