<?xml version="1.0" encoding="UTF-8"?>
<svg width="200" height="200" viewBox="0 0 200 200" xmlns="http://www.w3.org/2000/svg">
  <defs>
    <linearGradient id="bg" x1="0%" y1="0%" x2="100%" y2="100%">
      <stop offset="0%" stop-color="#e74c3c"/>
      <stop offset="100%" stop-color="#c0392b"/>
    </linearGradient>
  </defs>
  <circle cx="100" cy="100" r="95" fill="url(#bg)" stroke="#fff" stroke-width="2"/>
  <g>
    <!-- Microphone -->
    <rect x="85" y="60" width="30" height="60" rx="15" fill="#f5f5f5"/>
    <path d="M70,100 C70,120 85,130 100,130 C115,130 130,120 130,100" fill="none" stroke="#fff" stroke-width="6" stroke-linecap="round"/>
    <path d="M100,130 L100,150" stroke="#fff" stroke-width="6" stroke-linecap="round"/>
    <path d="M80,150 L120,150" stroke="#fff" stroke-width="6" stroke-linecap="round"/>
    <!-- Sound waves -->
    <path d="M60,90 C50,100 50,110 60,120" fill="none" stroke="#fff" stroke-width="3" stroke-linecap="round"/>
    <path d="M50,80 C35,100 35,110 50,130" fill="none" stroke="#fff" stroke-width="3" stroke-linecap="round"/>
    <path d="M140,90 C150,100 150,110 140,120" fill="none" stroke="#fff" stroke-width="3" stroke-linecap="round"/>
    <path d="M150,80 C165,100 165,110 150,130" fill="none" stroke="#fff" stroke-width="3" stroke-linecap="round"/>
  </g>
  <text x="100" y="170" font-family="Arial, sans-serif" font-size="16" font-weight="bold" text-anchor="middle" fill="#fff">SPEAKING</text>
</svg>